<?xml version="1.0" encoding="UTF-8" standalone="no"?>
<svg
   version="1.1"
   width="2000px"
   height="2000px"
   style="shape-rendering:geometricPrecision; text-rendering:geometricPrecision; image-rendering:optimizeQuality; fill-rule:evenodd; clip-rule:evenodd"
   id="svg2"
   sodipodi:docname="peregine_logo.svg"
   inkscape:version="1.4.3 (0d15f75042, 2025-12-25)"
   xmlns:inkscape="http://www.inkscape.org/namespaces/inkscape"
   xmlns:sodipodi="http://sodipodi.sourceforge.net/DTD/sodipodi-0.dtd"
   xmlns="http://www.w3.org/2000/svg"
   xmlns:svg="http://www.w3.org/2000/svg">
  <defs
     id="defs2" />
  <sodipodi:namedview
     id="namedview2"
     pagecolor="#505050"
     bordercolor="#eeeeee"
     borderopacity="1"
     inkscape:showpageshadow="0"
     inkscape:pageopacity="0"
     inkscape:pagecheckerboard="0"
     inkscape:deskcolor="#505050"
     inkscape:zoom="0.2775"
     inkscape:cx="2154.955"
     inkscape:cy="888.28829"
     inkscape:window-width="1536"
     inkscape:window-height="787"
     inkscape:window-x="0"
     inkscape:window-y="0"
     inkscape:window-maximized="1"
     inkscape:current-layer="svg2" />
  <g
     id="g3"
     transform="matrix(0.016,0,0,0.016,-6.492,-0.492)">
    <g
       id="g1">
      <path
         style="opacity:1"
         fill="#2b0670"
         d="m -0.5,-0.5 c 666.667,0 1333.33,0 2000,0 0,666.667 0,1333.33 0,2000 -666.67,0 -1333.333,0 -2000,0 0,-666.67 0,-1333.333 0,-2000 z"
         id="path1" />
    </g>
    <g
       id="g2">
      <path
         style="opacity:1"
         fill="#f9f9f9"
         d="m 337.5,254.5 c 1.127,0.622 2.127,1.455 3,2.5 9.037,0.235 18.037,0.902 27,2 8.25,0.868 14.083,5.034 17.5,12.5 4.495,8.993 9.495,17.66 15,26 1.582,2.211 3.749,3.545 6.5,4 1.527,1.693 2.86,3.527 4,5.5 11.478,0.747 22.811,2.414 34,5 8.248,3.247 14.248,8.914 18,17 11.55,3.137 23.216,5.804 35,8 7.135,2.784 14.468,4.617 22,5.5 -0.341,-3.854 -1.674,-7.354 -4,-10.5 20.515,1.391 39.848,7.058 58,17 5.071,3.14 8.738,7.473 11,13 17.214,3.106 33.547,8.773 49,17 7.588,6.086 15.588,11.586 24,16.5 0.38,1.521 0.546,3.187 0.5,5 8.919,9.559 6.752,14.393 -6.5,14.5 -1,0.833 -2,1.667 -3,2.5 27.03,4.264 50.53,15.931 70.5,35 3.004,5.867 6.837,11.034 11.5,15.5 -3.606,2.147 -7.273,4.147 -11,6 1,0.833 2,1.667 3,2.5 -3.259,5.427 -7.092,10.427 -11.5,15 -0.72,1.612 -0.554,3.112 0.5,4.5 34.041,6.022 65.374,18.689 94,38 0.625,2.8 1.292,5.634 2,8.5 24.52,8.761 47.854,19.928 70,33.5 30.895,13.967 62.228,26.967 94,39 18.979,8.817 36.98,19.15 54,31 2.57,4.294 5.74,8.127 9.5,11.5 0.08,3.935 1.08,7.602 3,11 10.34,9.678 20.01,20.011 29,31 8.08,5.624 16.25,11.124 24.5,16.5 16.3,17.29 31.46,35.457 45.5,54.5 16.78,10.436 32.11,22.769 46,37 4.56,6.65 8.56,13.65 12,21 6.3,5.289 11.46,11.456 15.5,18.5 5.64,1.945 11.14,4.112 16.5,6.5 0,3.692 1,7.025 3,10 5.67,4.667 11.33,9.333 17,14 2.67,4.654 4.33,9.654 5,15 1.85,5.516 5.68,8.35 11.5,8.5 38.33,3 76.67,6 115,9 39.83,0.528 79.67,0.362 119.5,-0.5 24.88,-0.171 49.71,0.663 74.5,2.5 7.6,6.935 15.77,13.102 24.5,18.5 -0.57,3.617 -1.74,7.117 -3.5,10.5 2.77,5.039 5.94,9.872 9.5,14.5 3.81,5.618 2.98,10.451 -2.5,14.5 -7.54,5.496 -15.88,6.996 -25,4.5 -0.16,2.027 0,4.027 0.5,6 1.93,1.38 3.76,2.88 5.5,4.5 12.13,6.475 24.46,12.475 37,18 7.59,4.27 12.09,10.77 13.5,19.5 0.33,3.67 0.67,7.33 1,11 3.7,4.04 7.7,7.7 12,11 4.01,4.02 7.01,8.69 9,14 0.67,3.67 0.67,7.33 0,11 -0.83,0.83 -1.67,1.67 -2.5,2.5 -5.06,2.43 -10.39,3.93 -16,4.5 3.39,5.9 7.73,11.06 13,15.5 9.67,5.5 19.01,11.5 28,18 7.42,2.87 15.09,4.87 23,6 3.91,1.91 7.24,4.57 10,8 1.33,0.33 2.67,0.67 4,1 1.92,4.94 5.08,9.11 9.5,12.5 6.33,10 12.67,20 19,30 0.44,5.37 0.44,10.7 0,16 4.86,4.74 10.69,7.57 17.5,8.5 3.87,7.87 9.21,14.54 16,20 2.22,1.28 4.55,2.28 7,3 -1.71,1.13 -2.21,2.63 -1.5,4.5 4.84,2.46 6.84,6.46 6,12 2.28,1.79 4.28,3.79 6,6 7.94,20.61 0.44,28.94 -22.5,25 0.73,5.69 2.56,11.03 5.5,16 6.88,7.88 12.54,16.54 17,26 2.72,12.26 -2.11,16.76 -14.5,13.5 -3.12,-1.06 -6.12,-2.39 -9,-4 -54.04,-34.19 -110.37,-64.53 -169,-91 -45.25,-20.53 -90.58,-40.86 -136,-61 -16.48,-3 -32.81,-6.5 -49,-10.5 2.19,5.39 4.69,10.73 7.5,16 0.33,2.67 0.67,5.33 1,8 2.83,2.98 5.16,6.32 7,10 2.63,1.63 4.96,3.63 7,6 3.13,5.43 6.63,10.59 10.5,15.5 12.47,4.13 21.47,12.13 27,24 -1.6,1.82 -3.27,3.66 -5,5.5 4.33,7.16 8,14.66 11,22.5 -0.65,1.99 -1.99,3.32 -4,4 -3.38,0.18 -6.72,0.68 -10,1.5 1.58,3.74 3.74,7.07 6.5,10 1.25,2.58 1.58,5.24 1,8 -1.13,1.44 -2.63,2.11 -4.5,2 -9.15,-4.35 -18.81,-6.19 -29,-5.5 0.67,1.33 1.67,2.33 3,3 3.44,0.69 6.77,1.69 10,3 0.88,1.36 1.21,2.86 1,4.5 6.85,0.14 13.19,1.98 19,5.5 14.47,15.47 29.3,30.64 44.5,45.5 0.09,2.51 0.93,4.67 2.5,6.5 4.92,0.85 9.08,3.02 12.5,6.5 3.53,8.03 9.03,14.37 16.5,19 5.12,8.64 11.62,16.31 19.5,23 1.52,4.86 4.52,8.52 9,11 4.99,7.98 9.49,16.32 13.5,25 -0.33,0.33 -0.67,0.67 -1,1 -4.3,-2.82 -8.97,-4.49 -14,-5 -0.16,1.37 0.01,2.71 0.5,4 16.42,18.42 32.09,37.42 47,57 6.17,10.33 10.67,21.33 13.5,33 -6.08,-0.87 -11.75,-3.04 -17,-6.5 -1.29,-0.49 -2.63,-0.66 -4,-0.5 1.2,5.72 4.37,10.05 9.5,13 4.49,8.17 10.16,15.5 17,22 2.92,4.17 5.58,8.5 8,13 17.56,17.88 33.23,37.22 47,58 2.57,8.18 3.07,16.51 1.5,25 -1.67,-1.17 -3.33,-2.33 -5,-3.5 -1.74,-0.65 -3.4,-0.48 -5,0.5 -7.12,-9.62 -15.62,-17.62 -25.5,-24 -1.31,-3.95 -3.14,-7.61 -5.5,-11 -2.04,-0.6 -3.87,-0.6 -5.5,0 -30.51,-37.19 -62.51,-73.19 -96,-108 -21.86,-21.53 -43.36,-43.36 -64.5,-65.5 -0.95,-0.48 -1.95,-0.65 -3,-0.5 -0.16,1.7 0.01,3.37 0.5,5 18.88,23.89 38.88,46.89 60,69 13.24,17.91 27.24,35.25 42,52 3,4.33 6,8.67 9,13 0.2,4.87 2.2,8.87 6,12 0.99,2.42 0.32,4.09 -2,5 -5,-3 -10,-6 -15,-9 -1.96,0.79 -3.46,2.13 -4.5,4 -7.52,-6.01 -15.68,-11.01 -24.5,-15 -3.75,-1.21 -7.58,-2.04 -11.5,-2.5 -7.66,-3.83 -15,-8.16 -22,-13 -2.5,-3.17 -5,-6.33 -7.5,-9.5 -2.23,-2.2 -4.73,-4.03 -7.5,-5.5 -20.91,-22.58 -42.25,-44.92 -64,-67 -5.89,-2.56 -10.56,-6.56 -14,-12 -41.56,-23.6 -81.22,-49.94 -119,-79 -46.95,-18.29 -89.95,-42.96 -129,-74 -21.37,-19.03 -40.21,-40.2 -56.5,-63.5 -21.51,-21.34 -38.84,-45.68 -52,-73 -19.27,-16.6 -37.94,-33.93 -56,-52 -7.88,-8.88 -15.38,-18.04 -22.5,-27.5 -2.288,-0.82 -4.622,-1.49 -7,-2 -40.866,-2.17 -80.866,-9.51 -120,-22 -25.592,-8.86 -51.259,-17.53 -77,-26 -8.545,-2.31 -17.211,-3.98 -26,-5 -3.217,-1.64 -6.55,-2.97 -10,-4 -32.031,-6.77 -64.364,-9.11 -97,-7 -6.522,2.29 -13.188,3.95 -20,5 -8.158,4.15 -15.158,9.82 -21,17 -1.774,0.97 -3.607,1.8 -5.5,2.5 -1.442,-0.71 -2.275,-1.88 -2.5,-3.5 1.197,-2.89 2.53,-5.73 4,-8.5 -0.865,-1.08 -1.865,-1.25 -3,-0.5 -1.185,1.35 -2.519,2.52 -4,3.5 -0.333,-0.67 -0.667,-1.33 -1,-2 1.604,-3.71 3.604,-7.21 6,-10.5 -0.667,-0.17 -1.333,-0.33 -2,-0.5 -9.092,5.49 -10.425,12.66 -4,21.5 -1.408,0.32 -2.741,-0.02 -4,-1 -11.126,-9.71 -15.293,-21.88 -12.5,-36.5 3.865,-10.06 8.532,-19.73 14,-29 4.705,-26.916 16.872,-49.749 36.5,-68.5 14.137,-13.122 30.137,-23.455 48,-31 26.436,-6.979 51.769,-16.812 76,-29.5 1.812,-3.83 2.312,-7.83 1.5,-12 -3.856,-15.911 -9.856,-30.911 -18,-45 -4.137,-13.273 -10.137,-25.607 -18,-37 -33.771,-46.456 -71.938,-89.289 -114.5,-128.5 -19.438,-15.439 -39.438,-30.106 -60,-44 -10.027,-8.694 -19.36,-18.027 -28,-28 -38.687,-25.177 -71.021,-56.844 -97,-95 -21.087,-9.398 -39.087,-23.065 -54,-41 -7.096,-5.092 -13.596,-10.926 -19.5,-17.5 -30.109,-35.47 -47.275,-76.47 -51.5,-123 4.537,0.384 8.871,1.551 13,3.5 6.862,5.028 13.862,9.862 21,14.5 0.333,-0.667 0.667,-1.333 1,-2 -2.2,-8.766 -4.7,-17.432 -7.5,-26 -0.3,-6.004 -0.134,-12.004 0.5,-18 z"
         id="path2" />
    </g>
  </g>
</svg>
