<?xml version="1.0" encoding="UTF-8"?>
<!DOCTYPE svg PUBLIC "-//W3C//DTD SVG 1.1//EN" "http://www.w3.org/Graphics/SVG/1.1/DTD/svg11.dtd">
<svg xmlns="http://www.w3.org/2000/svg" version="1.1" width="2000px" height="2000px" style="shape-rendering:geometricPrecision; text-rendering:geometricPrecision; image-rendering:optimizeQuality; fill-rule:evenodd; clip-rule:evenodd" xmlns:xlink="http://www.w3.org/1999/xlink">
<g><path style="opacity:1" fill="#2b0670" d="M -0.5,-0.5 C 666.167,-0.5 1332.83,-0.5 1999.5,-0.5C 1999.5,666.167 1999.5,1332.83 1999.5,1999.5C 1332.83,1999.5 666.167,1999.5 -0.5,1999.5C -0.5,1332.83 -0.5,666.167 -0.5,-0.5 Z"/></g>
<g><path style="opacity:1" fill="#f9f9f9" d="M 337.5,254.5 C 338.627,255.122 339.627,255.955 340.5,257C 349.537,257.235 358.537,257.902 367.5,259C 375.75,259.868 381.583,264.034 385,271.5C 389.495,280.493 394.495,289.16 400,297.5C 401.582,299.711 403.749,301.045 406.5,301.5C 408.027,303.193 409.36,305.027 410.5,307C 421.978,307.747 433.311,309.414 444.5,312C 452.748,315.247 458.748,320.914 462.5,329C 474.05,332.137 485.716,334.804 497.5,337C 504.635,339.784 511.968,341.617 519.5,342.5C 519.159,338.646 517.826,335.146 515.5,332C 536.015,333.391 555.348,339.058 573.5,349C 578.571,352.14 582.238,356.473 584.5,362C 601.714,365.106 618.047,370.773 633.5,379C 641.088,385.086 649.088,390.586 657.5,395.5C 657.88,397.021 658.046,398.687 658,400.5C 666.919,410.059 664.752,414.893 651.5,415C 650.5,415.833 649.5,416.667 648.5,417.5C 675.53,421.764 699.03,433.431 719,452.5C 722.004,458.367 725.837,463.534 730.5,468C 726.894,470.147 723.227,472.147 719.5,474C 720.5,474.833 721.5,475.667 722.5,476.5C 719.241,481.927 715.408,486.927 711,491.5C 710.28,493.112 710.446,494.612 711.5,496C 745.541,502.022 776.874,514.689 805.5,534C 806.125,536.8 806.792,539.634 807.5,542.5C 832.02,551.261 855.354,562.428 877.5,576C 908.395,589.967 939.728,602.967 971.5,615C 990.479,623.817 1008.48,634.15 1025.5,646C 1028.07,650.294 1031.24,654.127 1035,657.5C 1035.08,661.435 1036.08,665.102 1038,668.5C 1048.34,678.178 1058.01,688.511 1067,699.5C 1075.08,705.124 1083.25,710.624 1091.5,716C 1107.8,733.29 1122.96,751.457 1137,770.5C 1153.78,780.936 1169.11,793.269 1183,807.5C 1187.56,814.15 1191.56,821.15 1195,828.5C 1201.3,833.789 1206.46,839.956 1210.5,847C 1216.14,848.945 1221.64,851.112 1227,853.5C 1227,857.192 1228,860.525 1230,863.5C 1235.67,868.167 1241.33,872.833 1247,877.5C 1249.67,882.154 1251.33,887.154 1252,892.5C 1253.85,898.016 1257.68,900.85 1263.5,901C 1301.83,904 1340.17,907 1378.5,910C 1418.33,910.528 1458.17,910.362 1498,909.5C 1522.88,909.329 1547.71,910.163 1572.5,912C 1580.1,918.935 1588.27,925.102 1597,930.5C 1596.43,934.117 1595.26,937.617 1593.5,941C 1596.27,946.039 1599.44,950.872 1603,955.5C 1606.81,961.118 1605.98,965.951 1600.5,970C 1592.96,975.496 1584.62,976.996 1575.5,974.5C 1575.34,976.527 1575.5,978.527 1576,980.5C 1577.93,981.88 1579.76,983.38 1581.5,985C 1593.63,991.475 1605.96,997.475 1618.5,1003C 1626.09,1007.27 1630.59,1013.77 1632,1022.5C 1632.33,1026.17 1632.67,1029.83 1633,1033.5C 1636.7,1037.54 1640.7,1041.2 1645,1044.5C 1649.01,1048.52 1652.01,1053.19 1654,1058.5C 1654.67,1062.17 1654.67,1065.83 1654,1069.5C 1653.17,1070.33 1652.33,1071.17 1651.5,1072C 1646.44,1074.43 1641.11,1075.93 1635.5,1076.5C 1638.89,1082.4 1643.23,1087.56 1648.5,1092C 1658.17,1097.5 1667.51,1103.5 1676.5,1110C 1683.92,1112.87 1691.59,1114.87 1699.5,1116C 1703.41,1117.91 1706.74,1120.57 1709.5,1124C 1710.83,1124.33 1712.17,1124.67 1713.5,1125C 1715.42,1129.94 1718.58,1134.11 1723,1137.5C 1729.33,1147.5 1735.67,1157.5 1742,1167.5C 1742.44,1172.87 1742.44,1178.2 1742,1183.5C 1746.86,1188.24 1752.69,1191.07 1759.5,1192C 1763.37,1199.87 1768.71,1206.54 1775.5,1212C 1777.72,1213.28 1780.05,1214.28 1782.5,1215C 1780.79,1216.13 1780.29,1217.63 1781,1219.5C 1785.84,1221.96 1787.84,1225.96 1787,1231.5C 1789.28,1233.29 1791.28,1235.29 1793,1237.5C 1800.94,1258.11 1793.44,1266.44 1770.5,1262.5C 1771.23,1268.19 1773.06,1273.53 1776,1278.5C 1782.88,1286.38 1788.54,1295.04 1793,1304.5C 1795.72,1316.76 1790.89,1321.26 1778.5,1318C 1775.38,1316.94 1772.38,1315.61 1769.5,1314C 1715.46,1279.81 1659.13,1249.47 1600.5,1223C 1555.25,1202.47 1509.92,1182.14 1464.5,1162C 1448.02,1159 1431.69,1155.5 1415.5,1151.5C 1417.69,1156.89 1420.19,1162.23 1423,1167.5C 1423.33,1170.17 1423.67,1172.83 1424,1175.5C 1426.83,1178.48 1429.16,1181.82 1431,1185.5C 1433.63,1187.13 1435.96,1189.13 1438,1191.5C 1441.13,1196.93 1444.63,1202.09 1448.5,1207C 1460.97,1211.13 1469.97,1219.13 1475.5,1231C 1473.9,1232.82 1472.23,1234.66 1470.5,1236.5C 1474.83,1243.66 1478.5,1251.16 1481.5,1259C 1480.85,1260.99 1479.51,1262.32 1477.5,1263C 1474.12,1263.18 1470.78,1263.68 1467.5,1264.5C 1469.08,1268.24 1471.24,1271.57 1474,1274.5C 1475.25,1277.08 1475.58,1279.74 1475,1282.5C 1473.87,1283.94 1472.37,1284.61 1470.5,1284.5C 1461.35,1280.15 1451.69,1278.31 1441.5,1279C 1442.17,1280.33 1443.17,1281.33 1444.5,1282C 1447.94,1282.69 1451.27,1283.69 1454.5,1285C 1455.38,1286.36 1455.71,1287.86 1455.5,1289.5C 1462.35,1289.64 1468.69,1291.48 1474.5,1295C 1488.97,1310.47 1503.8,1325.64 1519,1340.5C 1519.09,1343.01 1519.93,1345.17 1521.5,1347C 1526.42,1347.85 1530.58,1350.02 1534,1353.5C 1537.53,1361.53 1543.03,1367.87 1550.5,1372.5C 1555.62,1381.14 1562.12,1388.81 1570,1395.5C 1571.52,1400.36 1574.52,1404.02 1579,1406.5C 1583.99,1414.48 1588.49,1422.82 1592.5,1431.5C 1592.17,1431.83 1591.83,1432.17 1591.5,1432.5C 1587.2,1429.68 1582.53,1428.01 1577.5,1427.5C 1577.34,1428.87 1577.51,1430.21 1578,1431.5C 1594.42,1449.92 1610.09,1468.92 1625,1488.5C 1631.17,1498.83 1635.67,1509.83 1638.5,1521.5C 1632.42,1520.63 1626.75,1518.46 1621.5,1515C 1620.21,1514.51 1618.87,1514.34 1617.5,1514.5C 1618.7,1520.22 1621.87,1524.55 1627,1527.5C 1631.49,1535.67 1637.16,1543 1644,1549.5C 1646.92,1553.67 1649.58,1558 1652,1562.5C 1669.56,1580.38 1685.23,1599.72 1699,1620.5C 1701.57,1628.68 1702.07,1637.01 1700.5,1645.5C 1698.83,1644.33 1697.17,1643.17 1695.5,1642C 1693.76,1641.35 1692.1,1641.52 1690.5,1642.5C 1683.38,1632.88 1674.88,1624.88 1665,1618.5C 1663.69,1614.55 1661.86,1610.89 1659.5,1607.5C 1657.46,1606.9 1655.63,1606.9 1654,1607.5C 1623.49,1570.31 1591.49,1534.31 1558,1499.5C 1536.14,1477.97 1514.64,1456.14 1493.5,1434C 1492.55,1433.52 1491.55,1433.35 1490.5,1433.5C 1490.34,1435.2 1490.51,1436.87 1491,1438.5C 1509.88,1462.39 1529.88,1485.39 1551,1507.5C 1564.24,1525.41 1578.24,1542.75 1593,1559.5C 1596,1563.83 1599,1568.17 1602,1572.5C 1602.2,1577.37 1604.2,1581.37 1608,1584.5C 1608.99,1586.92 1608.32,1588.59 1606,1589.5C 1601,1586.5 1596,1583.5 1591,1580.5C 1589.04,1581.29 1587.54,1582.63 1586.5,1584.5C 1578.98,1578.49 1570.82,1573.49 1562,1569.5C 1558.25,1568.29 1554.42,1567.46 1550.5,1567C 1542.84,1563.17 1535.5,1558.84 1528.5,1554C 1526,1550.83 1523.5,1547.67 1521,1544.5C 1518.77,1542.3 1516.27,1540.47 1513.5,1539C 1492.59,1516.42 1471.25,1494.08 1449.5,1472C 1443.61,1469.44 1438.94,1465.44 1435.5,1460C 1393.94,1436.4 1354.28,1410.06 1316.5,1381C 1269.55,1362.71 1226.55,1338.04 1187.5,1307C 1166.13,1287.97 1147.29,1266.8 1131,1243.5C 1109.49,1222.16 1092.16,1197.82 1079,1170.5C 1059.73,1153.9 1041.06,1136.57 1023,1118.5C 1015.12,1109.62 1007.62,1100.46 1000.5,1091C 998.212,1090.18 995.878,1089.51 993.5,1089C 952.634,1086.83 912.634,1079.49 873.5,1067C 847.908,1058.14 822.241,1049.47 796.5,1041C 787.955,1038.69 779.289,1037.02 770.5,1036C 767.283,1034.36 763.95,1033.03 760.5,1032C 728.469,1025.23 696.136,1022.89 663.5,1025C 656.978,1027.29 650.312,1028.95 643.5,1030C 635.342,1034.15 628.342,1039.82 622.5,1047C 620.726,1047.97 618.893,1048.8 617,1049.5C 615.558,1048.79 614.725,1047.62 614.5,1046C 615.697,1043.11 617.03,1040.27 618.5,1037.5C 617.635,1036.42 616.635,1036.25 615.5,1037C 614.315,1038.35 612.981,1039.52 611.5,1040.5C 611.167,1039.83 610.833,1039.17 610.5,1038.5C 612.104,1034.79 614.104,1031.29 616.5,1028C 615.833,1027.83 615.167,1027.67 614.5,1027.5C 605.408,1032.99 604.075,1040.16 610.5,1049C 609.092,1049.32 607.759,1048.98 606.5,1048C 595.374,1038.29 591.207,1026.12 594,1011.5C 597.865,1001.44 602.532,991.77 608,982.5C 612.705,955.584 624.872,932.751 644.5,914C 658.637,900.878 674.637,890.545 692.5,883C 718.936,876.021 744.269,866.188 768.5,853.5C 770.312,849.67 770.812,845.67 770,841.5C 766.144,825.589 760.144,810.589 752,796.5C 747.863,783.227 741.863,770.893 734,759.5C 700.229,713.044 662.062,670.211 619.5,631C 600.062,615.561 580.062,600.894 559.5,587C 549.473,578.306 540.14,568.973 531.5,559C 492.813,533.823 460.479,502.156 434.5,464C 413.413,454.602 395.413,440.935 380.5,423C 373.404,417.908 366.904,412.074 361,405.5C 330.891,370.03 313.725,329.03 309.5,282.5C 314.037,282.884 318.371,284.051 322.5,286C 329.362,291.028 336.362,295.862 343.5,300.5C 343.833,299.833 344.167,299.167 344.5,298.5C 342.3,289.734 339.8,281.068 337,272.5C 336.7,266.496 336.866,260.496 337.5,254.5 Z"/></g>
</svg>
